<!DOCTYPE svg PUBLIC "-//W3C//DTD SVG 20010904//EN" "http://www.w3.org/TR/2001/REC-SVG-20010904/DTD/svg10.dtd">
<svg version="1.0" xmlns="http://www.w3.org/2000/svg" width="1600px" height="1600px" viewBox="0 0 16000 16000" preserveAspectRatio="xMidYMid meet">
<g id="layer101" fill="#000000" stroke="none">
 <path d="M7335 15993 c-570 -34 -1266 -175 -1890 -381 -743 -247 -1490 -624 -2080 -1052 -38 -28 -81 -58 -95 -67 -61 -42 -223 -168 -415 -325 -169 -137 -414 -367 -652 -611 -304 -311 -588 -659 -837 -1026 -133 -196 -223 -341 -341 -551 -23 -41 -53 -93 -65 -115 -32 -57 -189 -370 -250 -500 -169 -359 -294 -704 -428 -1185 -92 -329 -112 -413 -182 -760 -24 -119 -76 -540 -90 -725 -13 -180 -13 -1205 0 -1395 77 -1120 431 -2254 1038 -3325 100 -176 335 -538 439 -675 116 -152 257 -336 262 -340 3 -3 26 -30 51 -60 282 -348 828 -886 1195 -1179 66 -53 122 -98 125 -101 42 -43 617 -436 724 -495 27 -14 95 -54 150 -88 113 -68 666 -349 766 -389 36 -15 133 -54 215 -88 434 -178 1005 -349 1435 -430 631 -119 856 -135 1743 -127 657 6 677 7 1117 72 589 86 1312 291 1865 527 661 282 1326 678 1854 1103 68 55 138 111 155 125 248 197 785 734 1031 1031 114 137 269 337 315 405 8 12 42 60 75 106 304 423 605 961 820 1463 311 728 489 1410 591 2265 26 214 32 1378 10 1670 -62 792 -284 1673 -609 2415 -105 241 -321 672 -394 787 -12 21 -23 40 -23 42 0 10 -193 322 -211 342 -19 21 -20 27 -8 149 15 159 6 545 -15 705 -75 548 -250 993 -571 1450 -199 284 -507 585 -810 790 -266 181 -566 324 -870 416 -285 86 -485 114 -855 121 -447 8 -700 -23 -1045 -128 -88 -26 -207 -68 -265 -93 -82 -35 -109 -42 -128 -35 -49 19 -349 91 -539 129 -589 120 -838 140 -1663 138 -327 -1 -617 -3 -645 -5z"/>
 </g>
<g id="layer102" fill="#fafafa" stroke="none">
 <path d="M10335 15303 c-222 -30 -405 -182 -482 -398 l-28 -80 -3 -2005 c-2 -1432 0 -2024 8 -2070 41 -239 227 -430 464 -475 113 -22 2825 -22 2938 -1 217 42 396 212 453 431 13 52 15 294 15 2080 0 2225 5 2064 -62 2202 -45 92 -159 208 -248 252 -146 71 -20 65 -1600 67 -784 1 -1438 -1 -1455 -3z m510 -394 c55 -15 120 -82 135 -139 7 -27 11 -93 8 -171 -3 -123 -4 -129 -33 -171 -17 -23 -49 -53 -70 -65 -38 -22 -50 -23 -281 -23 -263 0 -286 4 -336 57 -48 50 -58 90 -58 231 0 118 2 132 26 180 25 51 66 85 122 102 42 13 441 12 487 -1z m1210 -24 c76 -48 89 -82 93 -250 3 -137 2 -141 -25 -195 -22 -42 -38 -60 -72 -77 -42 -22 -53 -23 -288 -23 -220 0 -247 2 -281 19 -86 44 -102 85 -102 266 0 158 9 193 63 243 50 47 85 52 333 49 l231 -2 48 -30z m1154 10 c19 -11 48 -37 65 -58 l31 -39 3 -158 c3 -133 1 -164 -14 -192 -23 -47 -43 -67 -87 -90 -35 -18 -57 -19 -292 -16 -284 3 -274 1 -339 82 l-31 38 -3 149 c-3 137 -2 153 18 195 23 47 65 84 115 102 19 7 116 10 265 9 215 -2 238 -4 269 -22z m-2364 -956 c55 -15 120 -82 135 -139 7 -27 11 -93 8 -171 -3 -123 -4 -129 -33 -171 -17 -23 -49 -53 -70 -65 -38 -22 -50 -23 -283 -23 -219 0 -246 2 -280 19 -90 46 -112 98 -112 269 0 118 2 132 26 180 25 51 66 85 122 102 42 13 441 12 487 -1z m1210 -24 c76 -48 89 -82 93 -250 3 -137 2 -141 -25 -195 -22 -42 -38 -60 -72 -77 -42 -22 -53 -23 -288 -23 -220 0 -247 2 -281 19 -86 44 -102 85 -102 266 0 126 3 151 20 185 22 43 73 87 117 100 15 5 132 8 259 7 l231 -2 48 -30z m1154 10 c19 -11 48 -37 65 -58 l31 -39 3 -158 c3 -143 1 -162 -17 -198 -24 -48 -60 -78 -110 -93 -23 -6 -126 -9 -278 -7 -270 3 -262 1 -327 82 l-31 38 -3 149 c-3 137 -2 153 18 195 23 47 65 84 115 102 19 7 116 10 265 9 215 -2 238 -4 269 -22z m-2364 -956 c23 -7 57 -28 81 -53 25 -24 46 -58 53 -81 14 -52 14 -252 0 -296 -17 -51 -55 -97 -99 -119 -36 -18 -59 -20 -280 -20 -217 0 -244 2 -278 19 -90 46 -112 98 -112 269 0 118 2 132 26 180 25 51 66 85 122 102 42 13 441 12 487 -1z m1207 -21 c25 -15 57 -45 70 -65 21 -35 23 -51 26 -183 3 -142 3 -146 -25 -200 -21 -42 -38 -60 -72 -77 -42 -22 -53 -23 -288 -23 -220 0 -247 2 -281 19 -42 22 -63 43 -86 88 -21 43 -23 306 -2 357 16 38 78 93 121 106 17 5 134 8 260 7 l230 -2 47 -27z m1157 7 c19 -11 48 -37 65 -58 l31 -39 3 -158 c3 -144 2 -162 -18 -199 -11 -23 -39 -53 -62 -68 l-42 -28 -261 0 c-260 0 -262 0 -297 24 -19 13 -46 40 -59 59 -22 33 -24 46 -27 184 -3 136 -2 153 18 194 23 47 65 84 115 102 19 7 116 10 265 9 215 -2 238 -4 269 -22z m0 -970 c19 -11 48 -37 65 -58 l31 -39 3 -541 c1 -298 0 -552 -3 -565 -3 -12 -21 -40 -41 -62 -69 -76 44 -71 -1514 -68 -1393 3 -1395 3 -1435 24 -22 11 -53 40 -70 63 l-30 43 -3 531 -3 530 26 53 c26 53 66 87 123 104 15 5 655 8 1422 7 1375 -2 1395 -2 1429 -22z"/>
 <path d="M8564 11166 c-77 -61 -293 -228 -480 -371 -348 -267 -572 -440 -1059 -820 -432 -338 -517 -405 -553 -438 l-32 -31 42 -44 c64 -66 322 -302 713 -653 193 -173 461 -413 595 -534 135 -121 472 -425 750 -674 278 -250 570 -513 650 -586 80 -72 278 -250 440 -395 430 -385 668 -608 697 -652 22 -33 25 -45 20 -89 -4 -28 -12 -57 -18 -65 -26 -31 -172 -4 -259 49 -19 12 -181 114 -360 227 -179 114 -487 309 -685 435 -198 126 -508 323 -690 438 -181 115 -469 299 -640 407 -170 108 -472 300 -670 425 -198 126 -481 306 -630 400 -148 95 -439 279 -645 410 -206 130 -410 260 -454 288 l-78 51 -152 -51 c-83 -29 -367 -124 -631 -213 -935 -314 -1228 -416 -1313 -458 -78 -38 -181 -137 -217 -209 -71 -144 -11 -266 187 -376 63 -35 245 -114 388 -168 41 -15 109 -41 150 -57 185 -72 971 -380 1120 -439 91 -36 404 -159 695 -273 292 -114 728 -285 970 -380 242 -95 649 -255 905 -355 256 -100 616 -242 800 -314 184 -73 605 -238 935 -367 786 -308 1442 -565 1795 -704 561 -221 694 -257 831 -231 74 15 119 41 155 93 36 52 45 99 33 191 -5 43 -74 403 -153 800 -79 397 -219 1100 -311 1562 -91 462 -198 998 -236 1190 -179 893 -279 1422 -274 1443 4 17 1 22 -13 22 -29 0 -294 76 -407 116 -642 230 -1205 662 -1576 1211 -26 39 -78 120 -114 180 -37 59 -70 111 -73 114 -4 3 -70 -44 -148 -105z"/>
 </g>

</svg>